# xmcd
#
# Track frame offsets:
#	150
#	57111
#	109502
#	137717
#	183052
#	228366
#
# Disc length: 3571 seconds
#
# Revision: 0
# Processed by: cddbd v1.5.2PL0 Copyright (c) Steve Scherf et al.
# Submitted via: dBpowerAMP V4.0
#
DISCID=420df106
DTITLE=Bali Record Indonesia - Tari Kreasi Baru
DYEAR=1900
DGENRE=
TTITLE0=Tari Tresnayana
TTITLE1=Tari Kanyaka Sura
TTITLE2=Tabuh Bebarongan Buda Kecapi
TTITLE3=Tari Bremara Chumbhana
TTITLE4=Tari Witning Semara
TTITLE5=Tari Jangkrik
EXTD=
EXTT0=
EXTT1=
EXTT2=
EXTT3=
EXTT4=
EXTT5=
PLAYORDER=
